<svg width="401" height="240" viewBox="0 0 401 240" fill="none" xmlns="http://www.w3.org/2000/svg">
<g clip-path="url(#clip0_6_977)">
<path d="M112.976 87.0668C112.976 92.0002 113.509 96.0002 114.443 98.9335C115.509 101.867 116.843 105.067 118.709 108.533C119.376 109.6 119.643 110.667 119.643 111.6C119.643 112.933 118.843 114.267 117.109 115.6L108.709 121.2C107.509 122 106.309 122.4 105.243 122.4C103.909 122.4 102.576 121.733 101.243 120.533C99.376 118.533 97.776 116.4 96.4427 114.267C95.1093 112 93.776 109.467 92.3093 106.4C81.9093 118.667 68.8427 124.8 53.1093 124.8C41.9093 124.8 32.976 121.6 26.4427 115.2C19.9093 108.8 16.576 100.267 16.576 89.6002C16.576 78.2668 20.576 69.0668 28.7093 62.1335C36.8427 55.2002 47.6427 51.7335 61.376 51.7335C65.9093 51.7335 70.576 52.1335 75.5093 52.8002C80.4427 53.4668 85.5093 54.5335 90.8427 55.7335V46.0002C90.8427 35.8668 88.7093 28.8002 84.576 24.6668C80.3093 20.5335 73.1093 18.5335 62.8427 18.5335C58.176 18.5335 53.376 19.0668 48.4427 20.2668C43.5093 21.4668 38.7093 22.9335 34.0427 24.8002C31.9093 25.7335 30.3093 26.2668 29.376 26.5335C28.4427 26.8002 27.776 26.9335 27.2427 26.9335C25.376 26.9335 24.4427 25.6002 24.4427 22.8002V16.2668C24.4427 14.1335 24.7093 12.5335 25.376 11.6002C26.0427 10.6668 27.2427 9.7335 29.1093 8.80017C33.776 6.40017 39.376 4.40017 45.9093 2.80017C52.4427 1.06684 59.376 0.266837 66.7093 0.266837C82.576 0.266837 94.176 3.86684 101.643 11.0668C108.976 18.2668 112.709 29.2002 112.709 43.8668V87.0668H112.976ZM58.8427 107.333C63.2427 107.333 67.776 106.533 72.576 104.933C77.376 103.333 81.6427 100.4 85.2427 96.4002C87.376 93.8668 88.976 91.0668 89.776 87.8668C90.576 84.6668 91.1093 80.8002 91.1093 76.2668V70.6668C87.2427 69.7335 83.1093 68.9335 78.8427 68.4002C74.576 67.8668 70.4427 67.6002 66.3093 67.6002C57.376 67.6002 50.8427 69.3335 46.4427 72.9335C42.0427 76.5335 39.9093 81.6002 39.9093 88.2668C39.9093 94.5335 41.5093 99.2002 44.8427 102.4C48.0427 105.733 52.7093 107.333 58.8427 107.333ZM165.909 121.733C163.509 121.733 161.909 121.333 160.843 120.4C159.776 119.6 158.843 117.733 158.043 115.2L126.709 12.1335C125.909 9.46684 125.509 7.7335 125.509 6.80017C125.509 4.66684 126.576 3.46684 128.709 3.46684H141.776C144.309 3.46684 146.043 3.86684 146.976 4.80017C148.043 5.60017 148.843 7.46684 149.643 10.0002L172.043 98.2668L192.843 10.0002C193.509 7.3335 194.309 5.60017 195.376 4.80017C196.443 4.00017 198.309 3.46684 200.709 3.46684H211.376C213.909 3.46684 215.643 3.86684 216.709 4.80017C217.776 5.60017 218.709 7.46684 219.243 10.0002L240.309 99.3335L263.376 10.0002C264.176 7.3335 265.109 5.60017 266.043 4.80017C267.109 4.00017 268.843 3.46684 271.243 3.46684H283.643C285.776 3.46684 286.976 4.5335 286.976 6.80017C286.976 7.46684 286.843 8.1335 286.709 8.9335C286.576 9.7335 286.309 10.8002 285.776 12.2668L253.643 115.333C252.843 118 251.909 119.733 250.843 120.533C249.776 121.333 248.043 121.867 245.776 121.867H234.309C231.776 121.867 230.043 121.467 228.976 120.533C227.909 119.6 226.976 117.867 226.443 115.2L205.776 29.2002L185.243 115.067C184.576 117.733 183.776 119.467 182.709 120.4C181.643 121.333 179.776 121.733 177.376 121.733H165.909ZM337.243 125.333C330.309 125.333 323.376 124.533 316.709 122.933C310.043 121.333 304.843 119.6 301.376 117.6C299.243 116.4 297.776 115.067 297.243 113.867C296.709 112.667 296.443 111.333 296.443 110.133V103.333C296.443 100.533 297.509 99.2002 299.509 99.2002C300.309 99.2002 301.109 99.3335 301.909 99.6002C302.709 99.8668 303.909 100.4 305.243 100.933C309.776 102.933 314.709 104.533 319.909 105.6C325.243 106.667 330.443 107.2 335.776 107.2C344.176 107.2 350.709 105.733 355.243 102.8C359.776 99.8668 362.176 95.6002 362.176 90.1335C362.176 86.4002 360.976 83.3335 358.576 80.8002C356.176 78.2668 351.643 76.0002 345.109 73.8668L325.776 67.8668C316.043 64.8002 308.843 60.2668 304.443 54.2668C300.043 48.4002 297.776 41.8668 297.776 34.9335C297.776 29.3335 298.976 24.4002 301.376 20.1335C303.776 15.8668 306.976 12.1335 310.976 9.20017C314.976 6.1335 319.509 3.86684 324.843 2.26684C330.176 0.666837 335.776 0.000170231 341.643 0.000170231C344.576 0.000170231 347.643 0.133504 350.576 0.533504C353.643 0.933504 356.443 1.46684 359.243 2.00017C361.909 2.66684 364.443 3.3335 366.843 4.1335C369.243 4.9335 371.109 5.7335 372.443 6.5335C374.309 7.60017 375.643 8.66684 376.443 9.86684C377.243 10.9335 377.643 12.4002 377.643 14.2668V20.5335C377.643 23.3335 376.576 24.8002 374.576 24.8002C373.509 24.8002 371.776 24.2668 369.509 23.2002C361.909 19.7335 353.376 18.0002 343.909 18.0002C336.309 18.0002 330.309 19.2002 326.176 21.7335C322.043 24.2668 319.909 28.1335 319.909 33.6002C319.909 37.3335 321.243 40.5335 323.909 43.0668C326.576 45.6002 331.509 48.1335 338.576 50.4002L357.509 56.4002C367.109 59.4668 374.043 63.7335 378.176 69.2002C382.309 74.6668 384.309 80.9335 384.309 87.8668C384.309 93.6002 383.109 98.8002 380.843 103.333C378.443 107.867 375.243 111.867 371.109 115.067C366.976 118.4 362.043 120.8 356.309 122.533C350.309 124.4 344.043 125.333 337.243 125.333Z" fill="#252F3E"/>
<path d="M362.443 190.133C318.576 222.533 254.843 239.733 200.043 239.733C123.243 239.733 54.0426 211.333 1.77602 164.133C-2.35731 160.4 1.37602 155.333 6.30936 158.267C62.8426 191.067 132.576 210.933 204.709 210.933C253.376 210.933 306.843 200.8 356.043 180C363.376 176.667 369.643 184.8 362.443 190.133V190.133ZM380.709 169.333C375.109 162.133 343.643 165.867 329.376 167.6C325.109 168.133 324.443 164.4 328.309 161.6C353.376 144 394.576 149.067 399.376 154.933C404.176 160.933 398.043 202.133 374.576 221.867C370.976 224.933 367.509 223.333 369.109 219.333C374.443 206.133 386.309 176.4 380.709 169.333Z" fill="#FF9900"/>
</g>
<defs>
<clipPath id="clip0_6_977">
<rect width="400.893" height="239.733" fill="white"/>
</clipPath>
</defs>
</svg>
