<svg width="290" height="408" viewBox="0 0 290 408" fill="none" xmlns="http://www.w3.org/2000/svg">
<path d="M81.8125 37.303V19.4907H107.917V-0.000125716H62.2346V55.0889H107.917V37.303H81.8125Z" fill="#231F20"/>
<path d="M154.875 19.4907H173.124V-0.000125716H127.439C127.439 -0.000125716 127.439 9.78307 127.439 19.4907C133.55 25.5766 136.739 28.4882 145.578 37.2889C140.411 37.2889 127.439 37.3074 127.439 37.3065V55.0889H173.124V37.303L154.875 19.4907" fill="#231F20"/>
<path d="M219.628 19.4907H237.877V-0.000125716H192.188C192.188 -0.000125716 192.188 9.78307 192.188 19.4907C198.3 25.5766 201.49 28.4882 210.329 37.2889C205.164 37.2889 192.188 37.3074 192.188 37.3065V55.0889H237.877V37.303L219.628 19.4907Z" fill="#231F20"/>
<g clip-path="url(#clip0_8_940)">
<path d="M24.2041 373.475L0 78.9888L289.06 79.5806L263.466 373.475L145.621 407.447L24.2041 373.475Z" fill="#1B73BA"/>
<path d="M145.621 379.006V107.035L264.658 107.43L243.431 350.762L145.621 379.006Z" fill="#1C88C7"/>
<path d="M235.097 141.798H51.9795L56.9401 177.347H143.835L58.3295 213.888L63.2878 248.254H189.269L184.705 296.247L142.05 304.544L103.365 294.669L100.388 267.412H64.8753L69.6355 324.099L145.819 345.232L218.83 322.124L228.154 211.319H150.975L235.094 176.558L235.097 141.798Z" fill="white"/>
</g>
<defs>
<clipPath id="clip0_8_940">
<rect width="289.06" height="329.564" fill="white" transform="translate(0 78.436)"/>
</clipPath>
</defs>
</svg>
