<svg width="256" height="108" viewBox="0 0 256 108" fill="none" xmlns="http://www.w3.org/2000/svg">
<path d="M152.984 37.2137C147.387 37.2137 143.219 39.9619 143.219 46.5758C143.219 51.5591 145.966 55.0192 152.682 55.0192C158.375 55.0192 162.242 51.6643 162.242 46.3701C162.242 40.3699 158.782 37.2137 152.984 37.2137ZM141.794 83.9156C140.469 85.5404 139.149 87.2682 139.149 89.3056C139.149 93.3724 144.335 94.5963 151.458 94.5963C157.359 94.5963 165.397 94.1825 165.397 88.6966C165.397 85.4352 161.53 85.2342 156.644 84.9279L141.794 83.9156ZM171.907 37.5212C173.735 39.8614 175.671 43.1181 175.671 47.7974C175.671 59.0895 166.82 65.701 154.004 65.701C150.745 65.701 147.795 65.2954 145.966 64.7869L142.607 70.1781L152.576 70.7871C170.178 71.9093 180.551 72.419 180.551 85.9437C180.551 97.6461 170.279 104.255 152.576 104.255C134.163 104.255 127.143 99.576 127.143 91.5395C127.143 86.9607 129.178 84.5246 132.739 81.1616C129.38 79.7425 128.263 77.2 128.263 74.4518C128.263 72.2121 129.381 70.1781 131.215 68.2435C133.045 66.3136 135.079 64.3778 137.521 62.1404C132.537 59.6985 128.771 54.4078 128.771 46.8786C128.771 35.1809 136.504 27.1467 152.066 27.1467C156.442 27.1467 159.088 27.5488 161.428 28.1637H181.268V36.8081L171.907 37.5212Z" fill="#2F2707"/>
<path d="M199.166 19.0341C193.365 19.0341 190.009 15.6746 190.009 9.87306C190.009 4.07975 193.365 0.923584 199.166 0.923584C205.066 0.923584 208.424 4.07975 208.424 9.87306C208.424 15.6746 205.066 19.0341 199.166 19.0341ZM186.039 80.1714V72.1383L191.23 71.4288C192.655 71.2231 192.857 70.9191 192.857 69.3901V39.4802C192.857 38.3639 192.553 37.6485 191.532 37.3457L186.039 35.4111L187.158 27.1735H208.219V69.3901C208.219 71.0208 208.317 71.2231 209.847 71.4288L215.036 72.1383V80.1714H186.039Z" fill="#2F2707"/>
<path d="M255.267 76.2273C250.89 78.3618 244.482 80.2952 238.681 80.2952C226.575 80.2952 221.999 75.4172 221.999 63.9159V37.2627C221.999 36.6537 221.999 36.2457 221.182 36.2457H214.062V27.191C223.017 26.1717 226.575 21.6946 227.694 10.606H237.36V25.0565C237.36 25.7661 237.36 26.0735 238.175 26.0735H252.518V36.2457H237.36V60.5587C237.36 66.5612 238.786 68.8991 244.277 68.8991C247.129 68.8991 250.076 68.1884 252.518 67.2731L255.267 76.2273Z" fill="#2F2707"/>
<path d="M104.529 49.5298L58.0126 3.01724C55.3357 0.338004 50.9907 0.338004 48.3103 3.01724L38.6513 12.6763L50.9042 24.9292C53.7518 23.9672 57.0166 24.6124 59.2867 26.8825C61.5674 29.1666 62.208 32.4596 61.2225 35.3165L73.0313 47.1252C75.8882 46.141 79.1846 46.778 81.4664 49.0633C84.6553 52.2511 84.6553 57.4178 81.4664 60.6079C78.2763 63.798 73.1096 63.798 69.9184 60.6079C67.5197 58.2069 66.927 54.6837 68.1415 51.7285L57.1289 40.7159L57.1277 69.6965C57.905 70.0822 58.6391 70.5954 59.2867 71.2407C62.4756 74.4284 62.4756 79.5951 59.2867 82.7875C56.0967 85.9764 50.9276 85.9764 47.7422 82.7875C44.5533 79.5951 44.5533 74.4284 47.7422 71.2407C48.5301 70.454 49.4419 69.8589 50.4144 69.4592V40.2085C49.4419 39.8111 48.5312 39.2196 47.7422 38.4271C45.326 36.0144 44.745 32.4689 45.9829 29.5021L33.9053 17.4222L2.01055 49.3147C-0.669856 51.9962 -0.669856 56.3412 2.01055 59.0205L48.5266 105.534C51.2046 108.213 55.5484 108.213 58.23 105.534L104.529 59.2367C107.208 56.5563 107.208 52.209 104.529 49.5298Z" fill="#DE4C36"/>
</svg>
