<svg width="290" height="408" viewBox="0 0 290 408" fill="none" xmlns="http://www.w3.org/2000/svg">
<g clip-path="url(#clip0_6_1918)">
<path d="M26.3058 375.23L0 80.1814H289.06L262.725 375.183L144.353 408L26.3058 375.23Z" fill="#E53D20"/>
<path d="M144.53 382.917L240.181 356.399L262.685 104.306H144.53V382.917Z" fill="#F15123"/>
<path d="M144.53 213.736H96.6449L93.3375 176.68H144.53V140.493H144.405H53.7889L54.6554 150.201L63.5496 249.921H144.53V213.736Z" fill="#EDEDED"/>
<path d="M144.53 307.715L144.371 307.758L104.07 296.875L101.492 268.015H81.9092H65.1661L70.2363 324.833L144.363 345.411L144.53 345.365V307.715Z" fill="#EDEDED"/>
<path d="M26.8938 0.000192443H45.2841V18.1688H62.1061V0.000192443H80.4972V55.0195H62.1069V36.5962H45.2849V55.0195H26.8951V0.000192443H26.8938Z" fill="#100F0D"/>
<path d="M104.68 18.2455H88.4907V0.000192443H139.269V18.2455H123.072V55.0195H104.682V18.2455H104.68Z" fill="#100F0D"/>
<path d="M147.327 0.000192443H166.503L178.299 19.3322L190.082 0.000192443H209.265V55.0195H190.951V27.7489L178.299 47.3115H177.983L165.322 27.7489V55.0195H147.327V0.000192443Z" fill="#100F0D"/>
<path d="M218.418 0.000192443H236.813V36.8335H262.675V55.0195H218.418V0.000192443Z" fill="#100F0D"/>
<path d="M144.405 213.736V249.921H188.965L184.765 296.853L144.405 307.746V345.393L218.59 324.833L219.134 318.72L227.639 223.453L228.521 213.736H218.77H144.405Z" fill="white"/>
<path d="M144.405 140.493V176.68H231.698H231.814L232.54 168.546L234.189 150.202L235.054 140.493H144.405" fill="white"/>
</g>
<defs>
<clipPath id="clip0_6_1918">
<rect width="289.06" height="408" fill="white"/>
</clipPath>
</defs>
</svg>
