<svg width="290" height="409" viewBox="0 0 290 409" fill="none" xmlns="http://www.w3.org/2000/svg">
<path d="M289.06 80.3346H144.532H0L27.0863 374.982L144.532 408.371L261.931 374.982L289.06 80.3346Z" fill="#E6A329"/>
<path d="M144.53 104.336V383.417L239.634 356.383L262.794 104.336H144.53Z" fill="#F1BF22"/>
<path d="M220.195 140.492H73.9152L63.7489 250.816L63.9642 250.126H188.221L184.166 296.792L144.53 308.249L104.289 296.619L101.873 268.376H65.3422L70.5635 324.816L144.53 345.876L218.497 324.816L228.678 214.056H96.828L98.5074 177.123H190.026L191.372 198.263H228.229L220.195 140.492Z" fill="white"/>
<path d="M101.875 268.376H65.3432L70.561 324.815L144.531 345.829V308.248L104.29 296.619L101.875 268.376ZM144.531 140.492H73.9127L63.7463 250.816L63.9652 250.125H144.531V214.056H101.914L103.593 177.122H144.531V140.492Z" fill="#EBEBEB"/>
<path d="M116.402 36.8721H90.6973V55.3818H116.402H130.164H134.822V0.370934H116.402V36.8721Z" fill="#231F20"/>
<path d="M198.365 0.650051H153.53V19.9154C159.523 25.9281 162.656 28.8068 171.333 37.5075C166.259 37.5075 153.53 37.5255 153.53 37.5255V55.0996H198.365V37.5219L180.459 19.9154H198.365V0.650051Z" fill="#231F20"/>
</svg>
