<svg width="220" height="250" viewBox="0 0 220 250" fill="none" xmlns="http://www.w3.org/2000/svg">
<g clip-path="url(#clip0_19_2)">
<path d="M219.4 125.022C219.4 110.488 201.199 96.7142 173.293 88.1726C179.733 59.7302 176.871 37.1015 164.259 29.8567C161.352 28.1573 157.954 27.3523 154.242 27.3523V37.3251C156.299 37.3251 157.954 37.7276 159.34 38.4878C165.422 41.976 168.061 55.2581 166.003 72.3414C165.512 76.5452 164.707 80.9725 163.723 85.4893C154.957 83.3427 145.387 81.688 135.325 80.6147C129.288 72.3414 123.027 64.8283 116.721 58.2544C131.3 44.704 144.985 37.2803 154.287 37.2803V27.3076C141.988 27.3076 125.889 36.0729 109.611 51.2779C93.3322 36.1623 77.2327 27.4865 64.9345 27.4865V37.4592C74.1917 37.4592 87.921 44.8382 102.5 58.2991C96.2391 64.873 89.9782 72.3414 84.0303 80.6147C73.9234 81.688 64.3532 83.3427 55.5879 85.534C54.5593 81.062 53.7991 76.724 53.2624 72.565C51.1605 55.4817 53.7543 42.1996 59.7916 38.6667C61.1333 37.8617 62.8774 37.5039 64.9345 37.5039V27.5312C61.178 27.5312 57.7792 28.3362 54.8276 30.0356C42.2611 37.2803 39.4437 59.8643 45.9282 88.2173C18.1119 96.8037 0 110.533 0 125.022C0 139.557 18.2013 153.331 46.1071 161.872C39.6673 190.315 42.5294 212.943 55.1407 220.188C58.0475 221.888 61.4463 222.693 65.2029 222.693C77.5011 222.693 93.6005 213.927 109.879 198.722C126.157 213.838 142.257 222.514 154.555 222.514C158.311 222.514 161.71 221.709 164.662 220.009C177.228 212.765 180.046 190.181 173.561 161.828C201.288 153.286 219.4 139.512 219.4 125.022V125.022ZM161.174 95.1937C159.519 100.963 157.462 106.911 155.136 112.858C153.303 109.281 151.38 105.703 149.278 102.125C147.221 98.5478 145.029 95.0595 142.838 91.6608C149.188 92.5999 155.315 93.7626 161.174 95.1937ZM140.691 142.821C137.203 148.859 133.626 154.583 129.914 159.905C123.25 160.486 116.498 160.799 109.7 160.799C102.947 160.799 96.1943 160.486 89.5757 159.949C85.8638 154.628 82.2415 148.948 78.7532 142.955C75.3545 137.097 72.2687 131.149 69.4513 125.157C72.224 119.164 75.3545 113.171 78.7085 107.313C82.1967 101.276 85.7744 95.5515 89.4862 90.2297C96.1496 89.6483 102.902 89.3353 109.7 89.3353C116.453 89.3353 123.206 89.6483 129.824 90.185C133.536 95.5068 137.159 101.186 140.647 107.179C144.046 113.037 147.131 118.985 149.949 124.978C147.131 130.97 144.046 136.963 140.691 142.821ZM155.136 137.008C157.551 143 159.608 148.993 161.308 154.806C155.449 156.238 149.278 157.445 142.883 158.384C145.074 154.941 147.265 151.408 149.323 147.785C151.38 144.208 153.303 140.585 155.136 137.008ZM109.789 184.725C105.63 180.431 101.471 175.646 97.3571 170.414C101.382 170.593 105.496 170.727 109.655 170.727C113.859 170.727 118.018 170.638 122.088 170.414C118.063 175.646 113.904 180.431 109.789 184.725ZM76.5172 158.384C70.1669 157.445 64.0401 156.282 58.1817 154.851C59.8364 149.082 61.8935 143.134 64.219 137.186C66.0525 140.764 67.9755 144.342 70.0774 147.919C72.1793 151.497 74.3259 154.985 76.5172 158.384ZM109.566 65.3203C113.725 69.6134 117.884 74.3986 121.998 79.6309C117.973 79.452 113.859 79.3178 109.7 79.3178C105.496 79.3178 101.337 79.4073 97.2676 79.6309C101.293 74.3986 105.452 69.6134 109.566 65.3203ZM76.4725 91.6608C74.2812 95.1043 72.0898 98.6372 70.0327 102.26C67.9755 105.837 66.0525 109.415 64.219 112.993C61.8041 107 59.7469 101.007 58.0475 95.1937C63.906 93.8074 70.0774 92.5999 76.4725 91.6608V91.6608ZM36.0002 147.651C20.1691 140.898 9.92801 132.044 9.92801 125.022C9.92801 118.001 20.1691 109.102 36.0002 102.394C39.8462 100.739 44.0499 99.2633 48.3879 97.877C50.9369 106.642 54.291 115.765 58.45 125.112C54.3357 134.414 51.0264 143.492 48.522 152.213C44.0947 150.826 39.8909 149.306 36.0002 147.651ZM60.06 211.557C53.9779 208.069 51.3394 194.787 53.3966 177.703C53.8885 173.5 54.6935 169.072 55.6773 164.556C64.4426 166.702 74.0128 168.357 84.075 169.43C90.1123 177.703 96.3732 185.217 102.679 191.791C88.0999 205.341 74.4153 212.765 65.1134 212.765C63.101 212.72 61.4016 212.317 60.06 211.557V211.557ZM166.138 177.48C168.239 194.563 165.646 207.845 159.608 211.378C158.267 212.183 156.523 212.541 154.465 212.541C145.208 212.541 131.479 205.162 116.9 191.701C123.161 185.127 129.422 177.659 135.37 169.385C145.477 168.312 155.047 166.657 163.812 164.466C164.841 168.983 165.646 173.321 166.138 177.48V177.48ZM183.355 147.651C179.509 149.306 175.305 150.782 170.967 152.168C168.418 143.403 165.064 134.28 160.905 124.933C165.02 115.631 168.329 106.553 170.833 97.8322C175.261 99.2186 179.464 100.739 183.4 102.394C199.231 109.147 209.472 118.001 209.472 125.022C209.427 132.044 199.186 140.943 183.355 147.651V147.651Z" fill="#61DAFB"/>
<path d="M109.655 145.46C120.942 145.46 130.093 136.31 130.093 125.022C130.093 113.735 120.942 104.585 109.655 104.585C98.3679 104.585 89.2178 113.735 89.2178 125.022C89.2178 136.31 98.3679 145.46 109.655 145.46Z" fill="#61DAFB"/>
</g>
<defs>
<clipPath id="clip0_19_2">
<rect width="219.4" height="250" fill="white"/>
</clipPath>
</defs>
</svg>
