<svg width="256" height="230" viewBox="0 0 256 230" fill="none" xmlns="http://www.w3.org/2000/svg">
<path d="M0.75415 114.751C0.75415 133.965 19.5166 151.902 49.0972 162.013C43.1903 191.75 48.0386 215.719 64.2326 225.058C80.8783 234.657 105.676 228.013 129.213 207.439C152.156 227.182 175.344 234.952 191.523 225.586C208.152 215.959 213.21 190.365 207.14 159.699C237.95 149.513 255.184 134.218 255.184 114.751C255.184 95.9816 236.387 79.744 207.205 69.6982C213.74 37.7649 208.203 14.3781 191.338 4.65292C175.079 -4.72276 151.622 3.4491 128.342 23.7094C104.123 2.20469 80.8974 -4.36097 64.0494 5.39255C47.8063 14.7949 43.1711 39.1989 49.0972 69.4871C20.5155 79.4524 0.75415 96.0567 0.75415 114.751Z" fill="white"/>
<path d="M201.025 79.674C198.68 78.8672 196.252 78.1039 193.751 77.3819C194.162 75.7043 194.539 74.0485 194.874 72.4208C200.381 45.6934 196.781 24.1617 184.487 17.0725C172.7 10.2749 153.422 17.3625 133.952 34.3063C132.08 35.9356 130.202 37.6607 128.326 39.4686C127.075 38.2724 125.827 37.1165 124.582 36.0109C104.177 17.8934 83.7242 10.2584 71.4431 17.3681C59.6667 24.1854 56.1792 44.4273 61.1355 69.757C61.6141 72.2036 62.1736 74.7021 62.8062 77.2423C59.9116 78.064 57.1171 78.94 54.4433 79.8719C30.5209 88.2123 15.2429 101.284 15.2429 114.842C15.2429 128.846 31.6438 142.891 56.5609 151.408C58.5272 152.08 60.5676 152.715 62.6703 153.319C61.9878 156.066 61.3941 158.759 60.8958 161.384C56.1699 186.275 59.8605 206.038 71.6056 212.813C83.7371 219.808 104.097 212.617 123.923 195.288C125.49 193.918 127.062 192.465 128.638 190.942C130.68 192.908 132.719 194.769 134.746 196.515C153.95 213.04 172.916 219.713 184.651 212.92C196.77 205.904 200.709 184.673 195.595 158.842C195.205 156.869 194.75 154.854 194.24 152.803C195.67 152.38 197.073 151.944 198.442 151.49C224.346 142.907 241.199 129.033 241.199 114.842C241.199 101.235 225.429 88.0752 201.025 79.674Z" fill="#53C1DE"/>
<path d="M195.406 142.328C194.171 142.737 192.903 143.132 191.611 143.515C188.751 134.462 184.892 124.836 180.169 114.89C184.676 105.18 188.386 95.6769 191.166 86.6825C193.477 87.3514 195.721 88.0568 197.883 88.8013C218.792 95.9995 231.547 106.642 231.547 114.843C231.547 123.577 217.772 134.917 195.406 142.328ZM186.126 160.717C188.387 172.139 188.71 182.466 187.212 190.539C185.867 197.793 183.16 202.629 179.814 204.566C172.693 208.688 157.465 203.33 141.042 189.198C139.159 187.578 137.263 185.848 135.36 184.017C141.727 177.054 148.09 168.959 154.301 159.968C165.224 158.999 175.544 157.415 184.903 155.251C185.364 157.11 185.773 158.934 186.126 160.717ZM92.2767 203.854C85.3194 206.311 79.7783 206.382 76.4288 204.45C69.3014 200.339 66.3384 184.471 70.3801 163.185C70.8431 160.747 71.3941 158.243 72.0291 155.683C81.2854 157.73 91.5298 159.203 102.479 160.091C108.731 168.888 115.278 176.974 121.876 184.055C120.435 185.446 118.999 186.771 117.571 188.019C108.804 195.683 100.019 201.12 92.2767 203.854ZM59.6828 142.274C48.665 138.508 39.566 133.614 33.3291 128.273C27.7249 123.474 24.8954 118.709 24.8954 114.843C24.8954 106.615 37.1621 96.1201 57.6208 88.9871C60.1031 88.1216 62.7017 87.3059 65.3985 86.5397C68.2259 95.7372 71.935 105.353 76.4111 115.077C71.8771 124.946 68.1153 134.715 65.2601 144.02C63.3376 143.468 61.475 142.886 59.6828 142.274ZM70.6086 67.9034C66.3622 46.2015 69.1824 29.8304 76.2792 25.7223C83.8385 21.346 100.554 27.5857 118.172 43.2293C119.298 44.2291 120.429 45.2757 121.563 46.3584C114.998 53.4077 108.511 61.4332 102.314 70.1786C91.687 71.1636 81.5146 72.7459 72.1619 74.8647C71.5739 72.4993 71.053 70.1754 70.6086 67.9034ZM168.076 91.9706C165.84 88.1087 163.545 84.3381 161.205 80.6704C168.414 81.5818 175.322 82.7916 181.808 84.2721C179.861 90.5135 177.434 97.0391 174.576 103.729C172.527 99.8376 170.359 95.9142 168.076 91.9706ZM128.329 53.2569C132.781 58.0805 137.24 63.4659 141.626 69.3091C137.206 69.1004 132.732 68.9918 128.221 68.9918C123.753 68.9918 119.312 69.0979 114.92 69.3031C119.31 63.5142 123.807 58.136 128.329 53.2569ZM88.3275 92.0374C86.0941 95.9102 83.9664 99.8123 81.949 103.722C79.138 97.0552 76.7333 90.4998 74.7689 84.17C81.2158 82.7273 88.0906 81.5476 95.2542 80.6535C92.8812 84.355 90.5669 88.1533 88.3275 92.0366V92.0374ZM95.4605 149.72C88.0592 148.894 81.0811 147.775 74.6358 146.373C76.6315 139.93 79.0894 133.234 81.9599 126.424C83.9825 130.331 86.1186 134.235 88.3657 138.116H88.3661C90.655 142.07 93.0264 145.943 95.4605 149.72ZM128.596 177.109C124.021 172.172 119.458 166.712 115.001 160.839C119.327 161.009 123.738 161.095 128.221 161.095C132.827 161.095 137.38 160.992 141.861 160.792C137.461 166.771 133.018 172.24 128.596 177.109ZM174.668 126.077C177.689 132.961 180.234 139.621 182.256 145.954C175.705 147.449 168.631 148.653 161.178 149.547C163.524 145.83 165.839 141.995 168.115 138.049C170.416 134.058 172.602 130.061 174.668 126.077ZM159.753 133.227C156.221 139.351 152.595 145.198 148.914 150.716C142.209 151.196 135.281 151.443 128.221 151.443C121.19 151.443 114.35 151.224 107.763 150.797C103.934 145.206 100.229 139.342 96.719 133.28H96.7198C93.2194 127.234 89.9978 121.137 87.0787 115.074C89.997 108.997 93.2102 102.894 96.6904 96.8586L96.6896 96.8598C100.179 90.8087 103.852 84.9736 107.646 79.4176C114.366 78.9096 121.257 78.6445 128.221 78.6445H128.221C135.217 78.6445 142.116 78.9116 148.834 79.424C152.571 84.9394 156.218 90.7556 159.722 96.8075C163.265 102.927 166.519 108.99 169.462 114.937C166.528 120.986 163.281 127.11 159.753 133.227ZM179.666 25.4352C187.232 29.7986 190.175 47.3965 185.421 70.4727C185.118 71.9451 184.776 73.4449 184.405 74.9648C175.031 72.8018 164.851 71.1922 154.193 70.1923C147.985 61.3508 141.551 53.3128 135.092 46.354C136.829 44.6836 138.563 43.0909 140.289 41.5879C156.971 27.0705 172.562 21.3388 179.666 25.4352Z" fill="white"/>
<path d="M128.221 94.6655C139.365 94.6655 148.398 103.699 148.398 114.843C148.398 125.986 139.365 135.02 128.221 135.02C117.078 135.02 108.044 125.986 108.044 114.843C108.044 103.699 117.078 94.6655 128.221 94.6655Z" fill="#53C1DE"/>
</svg>
